<svg id="Layer_1" data-name="Layer 1" xmlns="http://www.w3.org/2000/svg" viewBox="0 0 2000 500"><defs><style>.cls-1{fill:#3c55a4;}.cls-2{fill:#fff;}</style></defs><title>geo-ip-look-up-logo</title><path class="cls-1" d="M0,233.82c.63-50,39.13-88.74,89.32-88.62s89.45,39.21,88.86,89.49c-.56,48.61-36,88.36-88.95,88.46C36.65,323.24.68,283.59,0,233.82Zm136.05-52.71c-2.23-1.93-3.55-3.29-5.07-4.35-17.89-12.53-37.3-16.81-58.84-11.71C22.31,176.86,1.41,236.79,32.72,277c3.46,4.45,3.88,4.4,6.43-.62,9.3-18.29,18.63-36.57,27.76-54.94A19.47,19.47,0,0,1,76.36,212c18.59-9.1,37-18.6,55.44-28A45.11,45.11,0,0,0,136.05,181.11ZM42,287c18.79,16.34,39.59,21.25,62.62,16.65,27.87-5.57,50.43-29.3,54.75-57.29,3.4-22.05-1.86-41.73-17.34-59.31-1.33,2.17-2.19,3.39-2.85,4.7-9.28,18.29-18.6,36.57-27.74,54.93a19,19,0,0,1-8.94,9.3C84.67,264.72,67,273.77,49.33,282.74,47.12,283.86,45,285.22,42,287Zm28.44-35.33,1.18,1.21,22.13-11.27-11.62-13.1C78.08,236.52,74.25,244.1,70.43,251.68Z"/><path class="cls-2" d="M412.27,156.56c-8.32-2.54-16.46-5.78-24.9-7.47-24.22-4.83-47.81-3.84-68.63,11.48-15.14,11.13-24,26.37-27.18,44.93-3.36,19.72-3,39.23,4,58.17,7.81,21.32,23.42,34.14,45.24,39.19,20.74,4.8,41.4,3.68,61.8-2.55,3.32-1,4.65-2.69,4.63-6.22q-.21-26,0-51.95c0-3.57-1.18-4.75-4.77-4.7-14.06.17-28.12.12-42.18,0-1.88,0-5.17-.69-5.36-1.57-.64-3.07-.28-6.38-.09-9.58,0-.37,1.38-.94,2.11-.94,20.71,0,41.41,0,62.5,0,.14,2.11.34,3.76.34,5.42,0,23.49-.07,47,.09,70.47,0,3.61-.89,5.83-4.53,6.62-12.45,2.69-24.83,5.83-37.37,8-12.9,2.24-25.89,1.45-38.75-1-31.87-6-52-25-59.67-56.21-6.28-25.43-6.07-50.91,5-75.35,12.35-27.21,34.06-42,63.13-46.51,20.59-3.17,40.93-1.73,60.68,5.2C418.77,145.63,419.11,147.39,412.27,156.56Z"/><path class="cls-2" d="M1640.77,296.23c0,3.26,0,6.26,0,9.26.26,21.42.5,42.84.83,64.27,0,2.81-.85,4.12-3.82,3.93-2.69-.18-5.41,0-8.71,0v-6.59q0-88.74,0-177.48c0-2.89-1.56-6.72,4.16-6.74,4.75,0,7.44.71,7.18,6.32-.16,3.42,1,6.9,1.55,10.35l1.7.8a17.69,17.69,0,0,1,1.7-3.05c9-10.7,20.72-15.85,34.62-16.28,11.17-.35,22.12,0,32.37,5.59,15.34,8.33,22.79,22.08,25.3,38.34a174.08,174.08,0,0,1,1.63,36.29c-.92,16.17-6,31.16-18.41,42.7-7.67,7.12-16.69,10.67-27,12.19a65,65,0,0,1-26.87-1.65,42.72,42.72,0,0,1-22.33-14.81c-.75-.93-1.48-1.88-2.27-2.78C1642.22,296.63,1641.81,296.61,1640.77,296.23Zm86.55-47.2c-.67-7-.82-14-2.12-20.86-2.43-12.74-7.29-24.2-19.23-31.29-8.08-4.8-16.89-5.06-25.82-4.55-22.87,1.29-33.17,14.14-36.61,32.19-2.83,14.84-2.48,29.9-.29,44.9,3.2,21.84,13.49,33.3,34.21,36,16.52,2.13,32.47-3.08,41.4-19.18C1725.29,274.61,1727.19,262.1,1727.32,249Z"/><path class="cls-2" d="M818.92,314.1H806.84V138.41a29.11,29.11,0,0,1,3.34-.32c17.3.13,34.63-.21,51.9.62,14.95.72,29,4.82,39.62,16.46a37.87,37.87,0,0,1,9.58,20.05c2.87,18.78,1.62,36.69-13.56,50.67a51.22,51.22,0,0,1-29.85,13.55c-14.26,1.43-28.67,1.62-43,1.89-4.75.09-6.09,1.53-6,6.23.24,20.22.1,40.44.1,60.67Zm0-123.82c0,12,.08,24,0,36,0,3.06.84,4.37,4.07,4.2,14.86-.78,29.82-.56,44.53-2.42,11.43-1.44,21.63-6.92,27-18.18,4.27-9,5.32-18.4,3.84-28.43-2.77-18.83-15.44-27.92-31-30-14.51-1.94-29.34-1.4-44-2.1-3.4-.16-4.45,1.06-4.41,4.42C819,165.94,818.92,178.11,818.92,190.28Z"/><path class="cls-2" d="M560.32,250.27H538.57c-22.3,0-44.6.11-66.89-.08-4.95-.05-6.34,1.75-5.62,6.4,1.66,10.84,3.29,21.63,9.89,30.9,7.27,10.2,17.06,15.64,29.52,17.31,15.54,2.08,30.28-.25,44.69-5.94a10.94,10.94,0,0,1,2.48-.59,12.33,12.33,0,0,1,1.92,0c2.23,8.43,1.62,10.25-5.73,12.9a95.23,95.23,0,0,1-42.33,5.13c-12.28-1.21-23.28-4.6-32.82-12.65-10.91-9.21-16.57-21.33-18.87-34.91-3.24-19.19-2.68-38.29,5.79-56.32,9-19.2,23.76-30.23,45.48-31.46,15.75-.89,29.59,2.79,40.23,15,9.56,10.93,12.79,24.36,13.94,38.38C560.67,239.36,560.32,244.5,560.32,250.27Zm-53-10.75c11.82,0,23.64-.12,35.45.07,3.7.06,5-1.3,4.49-4.81-.43-3-.66-6.12-1.18-9.15-5.41-31.74-32.06-41.26-56.58-28.52C474.23,205,469.46,220,467.28,236c-.44,3.24,1.49,3.59,4.08,3.58C483.34,239.48,495.33,239.52,507.31,239.52Z"/><path class="cls-2" d="M1364.31,314.45v-188c3.31,0,6.6-.48,9.6.24,1.2.29,2.52,3.19,2.54,4.93.19,16.11.25,32.22.08,48.34-.25,22.79-.72,45.57-1.09,68.36,0,2,0,4.06,0,7.44,1.94-1.77,3-2.63,4-3.64,19-20.88,38.44-41.47,56.91-62.85,5.9-6.82,12.08-6.83,20.48-5.76-1.59,2-2.65,3.64-3.94,5-14.25,15.52-28.42,31.11-42.9,46.4-3.17,3.34-3.15,5.49-.49,9,16.31,21.56,32.42,43.27,48.58,64.93,1.1,1.48,2.15,3,3.31,4.62-9.51,2.88-14.2,1.4-19.56-5.77-13.77-18.35-27.61-36.65-41.29-55.08-2.35-3.17-4.09-3.32-6.87-.58-4.5,4.46-9.5,8.41-13.87,13a11.49,11.49,0,0,0-3.07,7c-.3,12-.4,24,0,36,.17,5.24-1.37,7.31-6.61,6.5A41.21,41.21,0,0,0,1364.31,314.45Z"/><path class="cls-2" d="M1210.8,248c1.15-17,3.85-33.21,14.46-47.07,9.51-12.41,22.28-19,37.74-19.83,8.84-.5,17.63-.57,26.41,2.3,13.67,4.46,23.62,13,29.93,25.56,9.71,19.27,10.43,39.77,6.49,60.6-2.6,13.8-8.43,25.92-19.49,35.06-8,6.6-17.13,10-27.43,11.37-9.88,1.3-19.45,1-28.84-2.11-19.49-6.54-30.36-21-35.23-40.18C1212.72,265.37,1212.1,256.62,1210.8,248Zm13.4,2.61c.51,3.91,1,9.89,2.13,15.75,2.64,13.93,8.54,26,21.28,33.47,9.17,5.36,19.11,6.35,29.66,4.91,12.07-1.64,21-7.58,27.72-17.35,6.55-9.47,8.75-20.32,9.7-31.47,1.21-14.2-.22-28.2-6.74-41-7.82-15.37-20.7-22.79-38.21-22.86s-30.33,7.22-38.25,22.64C1226.08,225.29,1224.77,236.88,1224.2,250.65Z"/><path class="cls-2" d="M705,249.56c-.5,16.1-2.75,32.59-13.5,46.61-9,11.7-20.77,18.09-35.53,19.86-10.41,1.24-20.4.87-30.29-2.64-15.22-5.4-25.38-16.13-30.92-30.87-9.18-24.45-9-49.22,2.15-72.86,8.44-17.83,23.7-27.46,43.65-28.54,8.85-.48,17.62-.41,26.38,2.5,14.27,4.74,24,14.1,30.43,27.19C703.21,222.71,704.8,235.58,705,249.56ZM646.7,192.22c-20.55-1-34.81,11.51-40.61,28.26-5.44,15.74-5.83,31.82-2.32,48,1.8,8.3,4.93,16,10.5,22.53,10.38,12.06,23.6,15.72,39.16,13.8,16.36-2,26.85-11,32.89-25.7,6.87-16.67,7.1-33.77,3.25-51.31C685.13,207.6,669.54,191.18,646.7,192.22Z"/><path class="cls-2" d="M1882.88,252.45c.73-20.63,3-36.93,13.53-50.9,9.61-12.81,22.57-19.61,38.46-20.43,9-.46,18-.46,26.88,2.6,14.39,4.94,24.55,14.29,30.34,27.89,10.64,25,10.59,50.51-.42,75.18-7.67,17.16-21.8,26.93-41,29.21-10.58,1.25-20.73,1-30.78-2.73-18.58-6.81-28.61-21.07-33.5-39.29C1884.2,265.8,1883.62,257.18,1882.88,252.45Zm13-2.59c.42,3.76.86,9.05,1.62,14.29,3.35,23.23,19,44.85,50.6,40.68,16.36-2.16,26.77-11.19,32.85-25.8,6.43-15.46,7-31.56,4-47.87-1.79-9.53-5.24-18.38-11.82-25.72-9.69-10.8-22.08-14-36.15-13.2-13,.78-23.14,6.41-30.57,17C1898.15,221,1896.68,234.55,1895.9,249.86Z"/><path class="cls-2" d="M1125.5,180.9c21.16-.55,37.39,8.09,48.23,26.3,6.25,10.51,8.57,22.32,9.3,34.32.92,15.15-.49,30.12-7.09,44.1-8.36,17.72-22,27.91-41.81,30.42-12.63,1.6-24.57.56-35.94-5-14.8-7.3-23.22-20-27.7-35.28a96.62,96.62,0,0,1,.19-55.21C1077.7,196.63,1096.62,179.9,1125.5,180.9Zm-46.06,68.69c.54,4.52,1,10.16,1.91,15.72,3.05,19.12,15.62,37.65,37.9,39.75,22.52,2.12,38.82-8.37,45.94-27.07,5.8-15.28,6.47-31.05,3.43-47-1.82-9.51-5.31-18.36-11.92-25.69-9.73-10.81-22.18-13.92-36.2-13.05-12.8.79-22.83,6.28-30.23,16.68C1081.84,220.8,1080.48,234.58,1079.44,249.59Z"/><path class="cls-2" d="M1575.35,314.46c-.91-5.76-1.71-10.91-2.5-15.94-5.24,4.09-9.88,8.7-15.38,11.78-11.22,6.28-23.66,7.44-36.3,6.31-8.4-.75-16.53-2.47-23.52-7.72-10.64-8-14.27-19.48-15.2-31.84-.84-11.26-.5-22.61-.55-33.92-.06-18.34.18-36.68-.14-55-.09-5.29,2.57-5.17,6.32-5.22,3.92-.06,6.34.23,6.29,5.36-.24,25.36-.39,50.74.06,76.1a92.14,92.14,0,0,0,3.63,24.1c2.86,9.74,10.81,14.26,20.58,16.2s19.52.94,28.86-1.94c15.16-4.69,22.27-16.4,24.41-31.28a184.26,184.26,0,0,0,1.4-24.55c.19-19.71.21-39.42,0-59.13-.06-4.62,2.08-5.06,5.6-4.8,3.21.24,7-1.19,6.94,4.63q-.22,61.2,0,122.4c0,3.73-1.32,4.92-4.81,4.51A54.68,54.68,0,0,0,1575.35,314.46Z"/><path class="cls-2" d="M951,138.68c.4-.29.53-.47.67-.48,11.81-.94,11.81-.94,11.81,10.66q0,73.57,0,147.14c0,6.8,0,6.82,6.79,6.83h76.79v11.33H951Z"/><path class="cls-2" d="M744.2,314.24V138.63c12.69-2,12.69-2,12.69,10V306.57c0,7.95,0,8-8.1,7.88C747.44,314.43,746.09,314.33,744.2,314.24Z"/><path class="cls-2" d="M1834.85,314.18v-5.06c0-40.11.09-80.21-.12-120.31,0-4.92,1.52-6,6.1-6s6.62.86,6.59,6.15c-.21,39.25-.11,78.5-.11,117.74,0,7.83,0,7.84-7.68,7.74C1838.29,314.43,1836.94,314.3,1834.85,314.18Z"/><path class="cls-2" d="M1793.54,305.19c0,7.86-3.51,11.89-10.2,11.77-6.22-.11-9.46-4.22-9.47-12,0-8,3.46-12.13,10-12C1790.53,293.13,1793.56,296.93,1793.54,305.19Z"/><path class="cls-2" d="M1849.33,147.43a58.66,58.66,0,0,1-1.27,5.78c-1.23,4-4.09,5.76-8.22,5.27s-5.71-3.45-6.16-7.07a41,41,0,0,1-.08-7.68c.25-3.89,1-7.6,5.89-8.22s7.83,1.32,9.22,6.65A40.35,40.35,0,0,1,1849.33,147.43Z"/><path class="cls-1" d="M70.43,251.68c3.82-7.58,7.65-15.16,11.69-23.16l11.62,13.1L71.61,252.89Z"/><path class="cls-1" d="M47.79,205.22a59.36,59.36,0,0,0-5.58-5c-4.14-2.89-3-5.16.19-8,2.17-1.92,3.71-2.1,5.53.12.54.66,1.2,1.22,1.8,1.83C55.19,199.73,55.07,200.56,47.79,205.22Z"/><path class="cls-1" d="M33.21,234c4.09-.22,7.29-.66,7.16,4.55-.13,5.46-3.87,4.18-6.85,4.2-3.19,0-7.06,1.18-6.89-4.61C26.8,232.1,31.05,234.44,33.21,234Z"/><path class="cls-1" d="M80.35,178.76c0-3.7-.9-7.19,4.44-7.09s4.2,3.83,4.29,6.87c.09,3.2.76,6.55-4.57,6.49C78.85,185,80.63,181.16,80.35,178.76Z"/><path class="cls-1" d="M134,277.86l-10.31-8.53,6.67-7.18,8.79,10.31Z"/><path class="cls-1" d="M143.6,234.09c-3.36.52-6.54-.17-5.43-5.2.27-1.27,2.05-2.57,3.43-3.13s3-.11,4.58-.12c2.73,0,5.46-.58,5.51,3.88,0,4.25-2,4.91-5.43,4.58C145.59,234,144.9,234.09,143.6,234.09Z"/><path class="cls-1" d="M98,289.94c-.21,3.08,1.2,6.85-4.22,6.95-5.74.1-4.55-3.91-4.54-7.1,0-3-1.22-6.66,4.26-6.77C99.44,282.9,97.72,286.91,98,289.94Z"/></svg>
