<svg id="Layer_1" data-name="Layer 1" xmlns="http://www.w3.org/2000/svg" viewBox="0 0 2000 500"><defs><style>.cls-1{fill:#fff;}.cls-2{fill:#f1bf48;}</style></defs><title>sunrise-sunset-logo</title><path class="cls-1" d="M287.14,302.82c-.78-56.34-44-98.55-100.07-96.38S94.73,256.38,95.8,301.52c-1.24,51.06,40.66,98.85,99.14,96.63C251.15,396,287.79,349.36,287.14,302.82Zm-51.87-37.66c-7.76,9.18-15.64,18.25-23.46,27.37-4.19,4.87-8.29,9.82-12.6,14.57-5.45,6-9.57,6.33-15.65,1.11Q169.33,296,155.27,283.54c-5.42-4.81-6.11-9.68-2.33-14.15,4-4.72,9.15-4.87,14.65-.15C175,275.55,182.23,282,190,288.81c9.14-10.65,17.9-20.87,26.68-31.09,1.62-1.88,3.16-3.82,4.92-5.55,4.15-4.08,9.32-4.27,13.22-.63C239,255.41,239.24,260.46,235.27,265.16Z"/><path class="cls-2" d="M308.49,244.33c3.63,13.82,7.38,26.74,10.32,39.83,2.28,10.15,1.82,10.25,12.16,10.25q24.22,0,48.45,0c4.48,0,8.22,1.24,9.93,5.75A8.53,8.53,0,0,1,382,312a135.38,135.38,0,0,1-13.82.36q-26.19.06-52.4,0c-10.87,0-13.21-2.53-13.89-13.21-2.9-45.68-24.4-79.79-66.67-97.53-64.12-26.89-139.12,7-153.79,80.23-1.32,6.59-1.75,13.38-2.31,20.1-.62,7.33-2.78,10.18-9.87,10.27q-29.91.35-59.82,0c-6.35-.06-9.53-3.51-9.46-9s3.63-8.78,10.21-8.81c15.33-.08,30.66-.1,46,0,3.48,0,5.24-.58,5.64-4.69,1.43-14.5,4.85-28.55,11.5-41.63,1.44-2.85.77-4.29-2-5.84q-22.95-13.11-45.71-26.57c-2.07-1.23-4.35-2.7-5.57-4.66-2.23-3.62-2.17-7.67.89-11s7.07-3.64,10.87-1.61c6.82,3.66,13.44,7.67,20.13,11.57,9.67,5.65,19.29,11.39,29,16.89,1.18.67,4,.74,4.49,0a126.23,126.23,0,0,1,33-31.24c-.85-1.67-1.44-3-2.17-4.22q-13.08-22.4-26.21-44.78a44.22,44.22,0,0,1-2.77-5.22A8.77,8.77,0,0,1,91,130.36a8.88,8.88,0,0,1,11.57,2,75.68,75.68,0,0,1,5.26,8.35c8.18,13.92,16.42,27.8,24.4,41.83,1.86,3.27,3.47,3.44,7,2.41,11.79-3.47,23.72-6.48,35.69-9.28,3.35-.79,4.59-1.87,4.56-5.43-.18-18.78-.22-37.57.05-56.36a16.85,16.85,0,0,1,3.06-9.43c2.3-3,6.26-3.4,9.95-1.73s5.2,4.9,5.23,8.79c.07,9.23,0,18.45,0,27.68q0,15.33,0,30.66c0,1.44.2,2.89.23,3.23l50.65,12.6c.17-.26,1.16-1.69,2-3.2,9.16-15.63,18.21-31.33,27.57-46.85,1.5-2.49,4.11-5.46,6.62-5.92a12.69,12.69,0,0,1,9.25,2.6c3.35,2.8,2.95,7,.71,10.85q-11.7,20.06-23.37,40.14c-2.4,4.12-4.77,8.25-7.4,12.79,3.5,2.72,7.15,5,10.13,8,7.09,7.08,14.07,14.29,20.64,21.84,2.38,2.74,3.83,3,6.84,1.22,15.56-9.29,31.23-18.37,46.9-27.48,6.08-3.53,11.63-2.92,14.56,1.47,3.22,4.81,1.49,10.22-4.81,14-13.6,8.07-27.3,16-40.95,24C314.1,241,310.86,242.93,308.49,244.33Z"/><path class="cls-1" d="M552,189.28c15.55-.5,29.32,2.54,41.76,10.49a44.43,44.43,0,0,1,7.15,6c2.49,2.45,5,5,1.91,8.88-3.62,4.46-8.27,5.8-12.54,3.36-4.7-2.68-9.15-6.06-14.16-7.9-15.45-5.69-31.12-6.12-46.49.45-6.86,2.94-11.15,8-10.76,16.07.38,7.89,5.23,12.62,11.86,14.84,9.28,3.11,19,4.87,28.47,7.46,8.51,2.34,17.19,4.38,25.34,7.68,16,6.5,22.81,19,22.53,36.14-.36,23-16.63,32.9-33.83,35.42-21,3.08-40.89.37-59.44-10.16a71.54,71.54,0,0,1-11.51-8.4c-4.88-4.26-3.89-12.13,1.66-15.54,2.79-1.72,5.13-1,7.59,1,14.78,12.24,31.74,18.58,51,17.16A49.19,49.19,0,0,0,580,307.68c12.54-6.08,14-24.52,2.2-31.71-7.23-4.4-16-6.4-24.22-9-12.78-4-26-6.69-38.44-11.56-11.11-4.37-16.33-14.32-17.46-26.1-1.24-13,2.61-23.73,14.19-30.83C527.53,191.61,539.74,188.42,552,189.28Z"/><path class="cls-1" d="M1356.53,189.28c15.44-.51,29.21,2.52,41.68,10.43a48,48,0,0,1,7.17,6c2.78,2.64,4.9,5.53,1.65,9.36-3.56,4.2-8.08,5.31-12.25,2.94-4.85-2.76-9.44-6.23-14.61-8.09-15.15-5.46-30.55-5.83-45.61.45-7.21,3-11.82,8.19-11.16,16.77.61,7.85,5.62,12.34,12.27,14.5,9.16,3,18.65,5,28,7.24,12.26,3,24.89,5.15,35.18,13.21,7.94,6.21,12,14.65,12.51,24.72.39,7.6.25,15.13-3.25,22.19-5.65,11.41-15.77,16.63-27.46,18.77-22,4-43.2,1.38-62.82-9.94a68.78,68.78,0,0,1-11.43-8.55c-4.58-4.13-3.23-12.95,2.51-15.32,1.87-.77,5.29,0,7,1.31,14.88,11.82,31.55,18.22,50.66,17.05a57,57,0,0,0,15.31-3.31c7.38-2.61,11.74-8.13,12.6-16.13,1-9.26-3.12-16-11.31-19.34s-17.19-5.23-25.81-7.79c-11.11-3.31-22.54-5.86-33.23-10.21-10.92-4.43-16.26-14.07-17.55-25.59-1.47-13.09,2.37-24.08,14.1-31.37A60.14,60.14,0,0,1,1356.53,189.28Z"/><path class="cls-1" d="M1824.36,284.5c2.65,11.95,9.31,20.35,19.48,25.3,18.37,8.93,36,6,52.63-5.1,4-2.69,8.41-2.19,12.32,1.61,3.73,3.63,2.08,6.75-.51,9.89-5.72,6.93-13.54,10.05-21.94,12.35-15.26,4.18-30.32,5-45.51-.54-17.86-6.51-33.59-27.4-34.26-46.76-.44-12.62,1.33-24.15,9.41-34.26,9.26-11.6,22.07-17.36,36-19.6a113.76,113.76,0,0,1,31.76-.1A30.21,30.21,0,0,1,1908,244.74c6,12.5.67,27.79-11.89,35.47-12.91,7.89-27.19,9.44-41.79,8.38C1844.54,287.89,1834.9,286,1824.36,284.5Zm.51-18.6a100.56,100.56,0,0,0,48.23,4.59c6.36-.89,12.41-3.15,17-8.11s4.36-10.51-1.17-14.3c-2.65-1.82-5.84-3.74-8.88-3.9-9.43-.5-19.15-1.5-28.3.16C1839.87,246.51,1831.05,254.3,1824.87,265.9Z"/><path class="cls-1" d="M1154.31,285.51c2.62,4.77,4.57,10.08,8,14.2,10.12,12.28,23.45,16.72,39.18,14.52,9.74-1.36,19-3.71,26.71-10.29,2.79-2.37,7.7-1,11.11,2.25,3.13,3,2.85,5.76.36,9.05-5.81,7.71-14.05,11-22.93,13.4-13.72,3.66-27.34,4.61-41.33.71-20-5.59-39.67-28.07-38.35-54.85,1-21.38,12-34.65,30.84-42.77,15.14-6.53,30.94-7.71,46.84-4.55,14.11,2.8,27.79,13.71,26.08,31.37-1,9.86-6.48,16.77-14.47,21.77-12.81,8-27.18,9.38-41.78,8.2-9.59-.77-19.09-2.55-28.63-3.88Zm.94-19.28c6.59,1.54,12.2,3.35,18,4.08,12.9,1.63,25.89,2.58,38.48-2,7.76-2.83,12.88-8.72,12.28-13.76s-6.41-9.89-14.53-10.53c-8.74-.7-17.79-1.29-26.34.18C1170.88,246.29,1162,254.07,1155.25,266.23Z"/><path class="cls-1" d="M1080.26,333.54c-11.53-2.22-23.35-3.54-34.5-7-7.46-2.3-14.21-7.31-20.86-11.73-3.75-2.5-3-8,.77-12.18s6-4.23,10.22-.48c7.45,6.55,16.71,9.87,26,11.13a142.8,142.8,0,0,0,33.7.25c8.72-.91,13-9.11,10.08-16.32-2.35-5.81-7.84-7.36-13.27-7.93-11.43-1.21-23-1.51-34.38-2.91-13.66-1.67-26.22-6.18-32.56-19.73-5.08-10.87.25-24.15,11.76-30.66,19.12-10.81,39.33-11.54,60.11-5.83,8.18,2.25,15.84,5.45,21.87,11.73,4.17,4.36,1.66,13.29-4.3,14.61a5.34,5.34,0,0,1-4.33-1.45c-7.13-8.09-17-10.07-26.72-10.91-10.91-.93-22-1.27-32.55,3.27-.76.33-1.53.61-2.27,1-4.35,2-8.44,4.47-8.15,10s4.85,7.35,9.05,8.52a96.09,96.09,0,0,0,15.95,2.69c10.93,1.11,22,1.19,32.82,3,22.12,3.63,32.69,28.82,19.68,46-6.24,8.23-15,12.07-25,13.26-4.22.5-8.54.08-12.82.08Z"/><path class="cls-1" d="M1747.27,333.11c-9.32-1.8-21.13-3.11-32.29-6.57-7.45-2.31-14.18-7.36-20.81-11.81-3.61-2.42-2.75-8.26,1-12.24s5.89-4.09,9.88-.52c7.27,6.5,16.3,9.91,25.46,11.07a156.63,156.63,0,0,0,34.63.46c8.49-.82,12.61-8.77,10-15.95-2.16-5.95-7.65-7.6-13.06-8.21-11.26-1.27-22.59-1.88-33.88-2.84-11.91-1-22.6-5.11-30.32-14.45-9.24-11.17-5.19-28,8.38-35.85,19.21-11.07,39.58-11.75,60.53-6,8.19,2.25,16,5.4,21.72,11.88,1.47,1.65,2.62,5.09,1.88,6.86-1.22,2.93-3.94,5.34-6.38,7.58-.52.47-3-.33-3.85-1.24-7.06-8.12-16.84-10.25-26.62-11.11-11.07-1-22.38-1.35-33,3.29-.9.39-1.83.75-2.72,1.17-4,1.92-7.6,4.32-7.54,9.38.07,5.3,4.18,7.36,8.29,8.51a108.71,108.71,0,0,0,16.35,3c12,1.42,24.36,1.33,36.07,4,15.48,3.59,22.76,14.74,22.25,30.07-.42,12.18-10.38,23.71-23.92,26.76C1763,331.84,1756.34,332.05,1747.27,333.11Z"/><path class="cls-1" d="M1579.63,247.76c11.41-10.85,23.69-17.39,37.67-20.07,18.94-3.63,36.34-1,49.67,14.75a36.59,36.59,0,0,1,8.82,23.54c.3,18.45.18,36.91.11,55.37,0,5.93-2.75,8.09-9.34,8-6-.09-7.51-1.53-7.54-7.79-.09-15.82,0-31.65-.07-47.47-.1-14.79-6.12-23.85-18.84-28.82-7.67-3-15.52-2.62-23.11-.23-15.43,4.87-28.18,13.43-35.64,28.37a16.42,16.42,0,0,0-1.65,7c-.15,13.84,0,27.69-.09,41.54,0,5.86-2.07,7.71-8.23,7.7-5.83,0-8.67-2.36-8.68-7.68q-.11-42.76,0-85.54c0-5.19,3.68-8.44,9-8.26s7.91,2.93,8,8.44C1579.66,239.89,1579.63,243.15,1579.63,247.76Z"/><path class="cls-1" d="M775.21,246.37c7-4.45,13-9,19.63-12.4,14.63-7.41,30.11-9.9,46.26-5.72,16.84,4.36,30,20.49,30.31,37.78.32,18.45.13,36.91.06,55.37,0,5.84-2.79,8.05-9.39,7.94-6-.1-7.51-1.63-7.52-7.74,0-16,.06-32,0-48-.1-16.53-9.48-27.38-25.44-29.92-9.87-1.57-18.78,1.27-27.36,5.65-10.66,5.44-19.57,12.8-24.72,23.89a18.81,18.81,0,0,0-1.71,7.52c-.17,13.51,0,27-.1,40.54,0,6.43-1.94,8.3-8.18,8.35s-8.76-2.41-8.78-8.6q-.07-42,0-84c0-5.75,3.39-9,8.88-8.85s8,2.92,8.08,8.88C775.26,240.11,775.21,243.16,775.21,246.37Z"/><path class="cls-1" d="M719.78,310.39c-10.71,9.95-22.08,16.21-35.11,19.54-21.93,5.6-45.55-1.21-55.66-22.2a47.48,47.48,0,0,1-4.47-18.46c-.6-17.28-.25-34.6-.19-51.91,0-6,4-9.56,9.76-9.14,4.81.35,7.17,2.65,7.19,7.49q.11,23.49,0,47c0,14.29,5.95,24.6,19.56,30.08,7.42,3,14.77,2.55,22.1,0,15.09-5.22,27.78-13.54,35.3-28.2a14,14,0,0,0,1.42-6.08c.12-13.68,0-27.36.08-41,0-6.37,3-9.38,8.87-9.25,5.69.12,8.22,2.9,8.22,9.28q0,41.53,0,83.07c0,6.74-2,8.76-8.37,8.78s-8.57-2.19-8.72-8.6C719.72,317.66,719.78,314.58,719.78,310.39Z"/><path class="cls-1" d="M1524.17,310.52c-10.83,9.86-22,16.28-34.88,19.3-19.86,4.65-37.57,1.55-51.36-14.79a36.83,36.83,0,0,1-8.79-23.54c-.31-18.28-.16-36.56-.11-54.85,0-5.28,3.45-8.44,8.81-8.46s8.11,2.74,8.12,8.23c0,15.81-.07,31.63,0,47.44.12,15,7,24.63,20.85,29.49,10.88,3.81,20.9.4,30.22-4.6a89.52,89.52,0,0,0,17.8-13.05c6.47-5.93,10.06-13.25,9.46-22.75-.75-11.81-.16-23.71-.19-35.57,0-3.5.5-7.18,4.3-7.92a17.48,17.48,0,0,1,10.15.88c1.64.77,2.5,4.7,2.52,7.22.18,26,.11,52.05.11,78.08,0,2,0,3.95,0,5.93-.11,5.76-2,7.65-7.74,7.78-6.26.15-9-2-9.27-7.57C1524,318.52,1524.17,315.25,1524.17,310.52Z"/><path class="cls-1" d="M1934.39,245.47c-11-1.3-12.22-2.1-12.4-7.82-.21-6.52,1.85-8.26,12.4-10.14,0-6.8,0-13.69,0-20.58,0-5.88,2.09-7.83,8.09-7.88,6.37-.05,8.71,1.95,8.79,7.83.09,6.88,0,13.76,0,21.26,9.49,0,18.49,0,27.49,0,6.85,0,9.25,2.53,9.17,9.26-.08,5.84-1.81,7.58-7.72,7.6-9.37,0-18.75,0-27.9,0-.43.51-.8.74-.8,1-.08,16.64-.71,33.29,0,49.89.58,13.75,10.74,19.79,22.86,14.95,6.47-2.58,8.43-7.69,8.7-14.06.27-6.57,6.91-10.69,12.62-7.49a9,9,0,0,1,4.13,5.94c1.77,18.53-12,33.3-30.74,34.15-20.25.93-31.81-10.88-33.39-28.44-1.36-15-1-30.19-1.32-45.3C1934.32,252.36,1934.39,249.07,1934.39,245.47Z"/><path class="cls-1" d="M908.16,253.5c4.35-5.78,8-11.27,12.26-16.14,8.71-9.85,20.29-12.18,32.78-11.2,4.9.39,10,.71,14.54,2.28,3.22,1.1,7.13,3.68,8.3,6.58,2.74,6.79-2.2,11.12-9.82,9.81-5.12-.87-10.4-1.85-15.52-1.52-10,.64-17.22,6.71-23.41,14.06C918.34,268,913,280.54,908.53,293.5a14.19,14.19,0,0,0-.35,4.39c0,7.26,0,14.51,0,21.76,0,8-2.89,10.52-10.89,9.61-3.89-.45-6-2.6-6-6.47q-.07-43.5,0-87c0-4.68,2.9-6.82,8.39-6.84s8.42,2.27,8.49,7.21C908.23,241.73,908.16,247.33,908.16,253.5Z"/><path class="cls-1" d="M1005,278.92c0,14.17,0,28.34,0,42.51,0,6-2.22,7.93-8.66,7.91-6,0-8.23-2-8.24-7.82q-.08-42.51,0-85c0-5.47,3.22-8.4,8.73-8.31,5.3.09,8.18,2.91,8.19,8.22Q1005.05,257.67,1005,278.92Z"/><path class="cls-1" d="M1005,202.52c0,5.89-2.87,8.66-8.79,8.55-5.66-.11-8.21-2.83-8.16-8.7.05-5.72,2.68-8.22,8.62-8.19S1005,196.64,1005,202.52Z"/></svg>
