<svg id="Layer_1" data-name="Layer 1" xmlns="http://www.w3.org/2000/svg" viewBox="0 0 2000 2000"><defs><style>.cls-1{fill:#ec5239;}.cls-2{fill:#4d2873;}</style></defs><title>SUNSET</title><path class="cls-1" d="M2000,1000a1003.89,1003.89,0,0,1-18.73,193.54H18.75A1002.31,1002.31,0,0,1,0,1000C0,447.73,447.73,0,1000,0S2000,447.73,2000,1000Z"/><path class="cls-2" d="M1971.89,1236.41a991.11,991.11,0,0,1-38.33,122.75H66.44a991.11,991.11,0,0,1-38.33-122.75Z"/><path class="cls-2" d="M1910.69,1413.67a993.45,993.45,0,0,1-50.31,96.29H139.64a984.65,984.65,0,0,1-50.31-96.29Z"/><path class="cls-2" d="M1809,1587.87q-26.82,36.86-56.87,71.07H247.83q-30-34.2-56.87-71.07Z"/><path class="cls-2" d="M1645.35,1763.9a1000.8,1000.8,0,0,1-94.85,71H449.5a1000.8,1000.8,0,0,1-94.85-71Z"/><path class="cls-2" d="M1342.18,1939.91a1004.25,1004.25,0,0,1-684.34,0Z"/></svg>